<svg width="25" height="26" viewBox="0 0 25 26" fill="none" xmlns="http://www.w3.org/2000/svg">
<path d="M21.6553 21.338L16.4404 15.8638C17.4609 14.5333 18.0762 12.8474 18.0762 11.0142C18.0762 6.72314 14.7314 3.24463 10.6006 3.24463C6.46973 3.24463 3.125 6.72822 3.125 11.0192C3.125 15.3103 6.46973 18.7888 10.6006 18.7888C12.3877 18.7888 14.0234 18.1388 15.3125 17.052L20.4932 22.4907C20.6494 22.6634 20.8643 22.7497 21.0742 22.7497C21.2744 22.7497 21.4746 22.6735 21.626 22.5212C21.9482 22.2013 21.958 21.6731 21.6553 21.338ZM10.6006 17.1181C9.0332 17.1181 7.55859 16.4833 6.4502 15.3306C5.3418 14.1778 4.73145 12.6442 4.73145 11.0192C4.73145 9.38916 5.3418 7.85557 6.4502 6.70791C7.55859 5.55518 9.0332 4.92041 10.6006 4.92041C12.168 4.92041 13.6426 5.55518 14.751 6.70791C15.8594 7.86064 16.4697 9.39424 16.4697 11.0192C16.4697 12.6493 15.8594 14.1829 14.751 15.3306C13.6426 16.4833 12.168 17.1181 10.6006 17.1181Z" fill="#9A99A2"/>
</svg>
